# This file uses centimeters as units for non-parametric coordinates.

mtllib CharR.mtl
g default
v -8.110144 15.126671 2.000000
v -4.110144 15.126671 2.000000
v -8.110144 27.126671 2.000000
v -4.110144 27.126671 2.000000
v -8.110144 27.126671 -2.000000
v -4.110144 27.126671 -2.000000
v -8.110144 15.126671 -2.000000
v -4.110144 15.126671 -2.000000
vt 0.688054 0.002465
vt 0.750305 0.002465
vt 0.750305 0.369700
vt 0.688054 0.369700
vt 0.688016 0.380585
vt 0.750732 0.380585
vt 0.750732 0.484427
vt 0.688016 0.484427
vt 0.688843 0.371273
vt 0.750950 0.371273
vt 0.750950 0.001518
vt 0.688843 0.001518
vt 0.754995 0.380457
vt 0.801845 0.380457
vt 0.801845 0.480528
vt 0.754995 0.480528
vt 0.811723 0.001474
vt 0.874064 0.001474
vt 0.874064 0.370132
vt 0.811723 0.370132
vt 0.690239 -0.000305
vt 0.749176 -0.000305
vt 0.749176 0.372000
vt 0.690239 0.372000
vn 0.000000 0.000000 1.000000
vn 0.000000 0.000000 1.000000
vn 0.000000 0.000000 1.000000
vn 0.000000 0.000000 1.000000
vn 0.000000 1.000000 0.000000
vn 0.000000 1.000000 0.000000
vn 0.000000 1.000000 0.000000
vn 0.000000 1.000000 0.000000
vn 0.000000 0.000000 -1.000000
vn 0.000000 0.000000 -1.000000
vn 0.000000 0.000000 -1.000000
vn 0.000000 0.000000 -1.000000
vn 0.000000 -1.000000 0.000000
vn 0.000000 -1.000000 0.000000
vn 0.000000 -1.000000 0.000000
vn 0.000000 -1.000000 0.000000
vn 1.000000 0.000000 0.000000
vn 1.000000 0.000000 0.000000
vn 1.000000 0.000000 0.000000
vn 1.000000 0.000000 0.000000
vn -1.000000 0.000000 0.000000
vn -1.000000 0.000000 0.000000
vn -1.000000 0.000000 0.000000
vn -1.000000 0.000000 0.000000
s 1
g initialShadingGroup pCube8
f 1/1/1 2/2/2 3/4/3
f 3/4/3 2/2/2 4/3/4
s 2
f 3/5/5 4/6/6 5/8/7
f 5/8/7 4/6/6 6/7/8
s 3
f 5/9/9 6/10/10 7/12/11
f 7/12/11 6/10/10 8/11/12
s 4
f 7/13/13 8/14/14 1/16/15
f 1/16/15 8/14/14 2/15/16
s 5
f 2/17/17 8/18/18 4/20/19
f 4/20/19 8/18/18 6/19/20
s 6
f 7/21/21 1/22/22 5/24/23
f 5/24/23 1/22/22 3/23/24
g default
v -8.110144 15.126671 2.000000
v -4.110144 15.126671 2.000000
v -8.110144 27.126671 2.000000
v -4.110144 27.126671 2.000000
v -8.110144 27.126671 -2.000000
v -4.110144 27.126671 -2.000000
v -8.110144 15.126671 -2.000000
v -4.110144 15.126671 -2.000000
vt 0.688054 0.002465
vt 0.750305 0.002465
vt 0.750305 0.369700
vt 0.688054 0.369700
vt 0.688016 0.380585
vt 0.750732 0.380585
vt 0.750732 0.484427
vt 0.688016 0.484427
vt 0.688843 0.371273
vt 0.750950 0.371273
vt 0.750950 0.001518
vt 0.688843 0.001518
vt 0.754995 0.380457
vt 0.801845 0.380457
vt 0.801845 0.480528
vt 0.754995 0.480528
vt 0.811723 0.001474
vt 0.874064 0.001474
vt 0.874064 0.370132
vt 0.811723 0.370132
vt 0.690239 -0.000305
vt 0.749176 -0.000305
vt 0.749176 0.372000
vt 0.690239 0.372000
vn 0.000000 0.000000 1.000000
vn 0.000000 0.000000 1.000000
vn 0.000000 0.000000 1.000000
vn 0.000000 0.000000 1.000000
vn 0.000000 1.000000 0.000000
vn 0.000000 1.000000 0.000000
vn 0.000000 1.000000 0.000000
vn 0.000000 1.000000 0.000000
vn 0.000000 0.000000 -1.000000
vn 0.000000 0.000000 -1.000000
vn 0.000000 0.000000 -1.000000
vn 0.000000 0.000000 -1.000000
vn 0.000000 -1.000000 0.000000
vn 0.000000 -1.000000 0.000000
vn 0.000000 -1.000000 0.000000
vn 0.000000 -1.000000 0.000000
vn 1.000000 0.000000 0.000000
vn 1.000000 0.000000 0.000000
vn 1.000000 0.000000 0.000000
vn 1.000000 0.000000 0.000000
vn -1.000000 0.000000 0.000000
vn -1.000000 0.000000 0.000000
vn -1.000000 0.000000 0.000000
vn -1.000000 0.000000 0.000000
s 1
g pCube8
f 9/25/25 10/26/26 11/28/27
f 11/28/27 10/26/26 12/27/28
s 2
f 11/29/29 12/30/30 13/32/31
f 13/32/31 12/30/30 14/31/32
s 3
f 13/33/33 14/34/34 15/36/35
f 15/36/35 14/34/34 16/35/36
s 4
f 15/37/37 16/38/38 9/40/39
f 9/40/39 16/38/38 10/39/40
s 5
f 10/41/41 16/42/42 12/44/43
f 12/44/43 16/42/42 14/43/44
s 6
f 15/45/45 9/46/46 13/48/47
f 13/48/47 9/46/46 11/47/48
