# This file uses centimeters as units for non-parametric coordinates.

mtllib CharL.mtl
g default
v 7.857277 15.126671 -2.000000
v 3.857277 15.126671 -2.000000
v 7.857277 27.126671 -2.000000
v 3.857277 27.126671 -2.000000
v 7.857277 27.126671 2.000000
v 3.857277 27.126671 2.000000
v 7.857277 15.126671 2.000000
v 3.857277 15.126671 2.000000
vt 0.688054 0.002465
vt 0.750305 0.002465
vt 0.750305 0.369700
vt 0.688054 0.369700
vt 0.688016 0.380585
vt 0.750732 0.380585
vt 0.750732 0.484427
vt 0.688016 0.484427
vt 0.688843 0.371273
vt 0.750950 0.371273
vt 0.750950 0.001518
vt 0.688843 0.001518
vt 0.754995 0.380457
vt 0.801845 0.380457
vt 0.801845 0.480528
vt 0.754995 0.480528
vt 0.811723 0.001474
vt 0.874064 0.001474
vt 0.874064 0.370132
vt 0.811723 0.370132
vt 0.690239 -0.000305
vt 0.749176 -0.000305
vt 0.749176 0.372000
vt 0.690239 0.372000
vn -0.000000 0.000000 -1.000000
vn -0.000000 0.000000 -1.000000
vn -0.000000 0.000000 -1.000000
vn -0.000000 0.000000 -1.000000
vn 0.000000 1.000000 0.000000
vn 0.000000 1.000000 0.000000
vn 0.000000 1.000000 0.000000
vn 0.000000 1.000000 0.000000
vn 0.000000 0.000000 1.000000
vn 0.000000 0.000000 1.000000
vn 0.000000 0.000000 1.000000
vn 0.000000 0.000000 1.000000
vn 0.000000 -1.000000 0.000000
vn 0.000000 -1.000000 0.000000
vn 0.000000 -1.000000 0.000000
vn 0.000000 -1.000000 0.000000
vn -1.000000 0.000000 0.000000
vn -1.000000 0.000000 0.000000
vn -1.000000 0.000000 0.000000
vn -1.000000 0.000000 0.000000
vn 1.000000 0.000000 0.000000
vn 1.000000 0.000000 0.000000
vn 1.000000 0.000000 0.000000
vn 1.000000 0.000000 0.000000
s off
g initialShadingGroup pCube10
f 1/1/1 2/2/2 4/3/3 3/4/4
f 3/5/5 4/6/6 6/7/7 5/8/8
f 5/9/9 6/10/10 8/11/11 7/12/12
f 7/13/13 8/14/14 2/15/15 1/16/16
f 2/17/17 8/18/18 6/19/19 4/20/20
f 7/21/21 1/22/22 3/23/23 5/24/24
