# This file uses centimeters as units for non-parametric coordinates.

mtllib CharLeg.mtl
g default
v -4.067978 3.201148 2.000000
v -0.067978 3.201148 2.000000
v -4.067978 15.201148 2.000000
v -0.067978 15.201148 2.000000
v -4.067978 15.201148 -2.000000
v -0.067978 15.201148 -2.000000
v -4.067978 3.201148 -2.000000
v -0.067978 3.201148 -2.000000
vt 0.063880 0.007622
vt 0.124519 0.007622
vt 0.124519 0.336283
vt 0.063880 0.336283
vt 0.068147 0.380866
vt 0.115981 0.380866
vt 0.115981 0.496954
vt 0.068147 0.496954
vt 0.185639 0.332522
vt 0.245970 0.332522
vt 0.245970 0.009140
vt 0.185639 0.009140
vt 0.133000 0.378912
vt 0.183422 0.378912
vt 0.183422 0.494980
vt 0.133000 0.494980
vt 0.125129 0.006618
vt 0.183810 0.006618
vt 0.183810 0.330977
vt 0.125129 0.330977
vt 0.002064 0.007299
vt 0.065032 0.007299
vt 0.065032 0.330849
vt 0.002064 0.330849
vn 0.000000 0.000000 1.000000
vn 0.000000 0.000000 1.000000
vn 0.000000 0.000000 1.000000
vn 0.000000 0.000000 1.000000
vn 0.000000 1.000000 0.000000
vn 0.000000 1.000000 0.000000
vn 0.000000 1.000000 0.000000
vn 0.000000 1.000000 0.000000
vn 0.000000 0.000000 -1.000000
vn 0.000000 0.000000 -1.000000
vn 0.000000 0.000000 -1.000000
vn 0.000000 0.000000 -1.000000
vn 0.000000 -1.000000 0.000000
vn 0.000000 -1.000000 0.000000
vn 0.000000 -1.000000 0.000000
vn 0.000000 -1.000000 0.000000
vn 1.000000 0.000000 0.000000
vn 1.000000 0.000000 0.000000
vn 1.000000 0.000000 0.000000
vn 1.000000 0.000000 0.000000
vn -1.000000 0.000000 0.000000
vn -1.000000 0.000000 0.000000
vn -1.000000 0.000000 0.000000
vn -1.000000 0.000000 0.000000
s 1
g initialShadingGroup pCube6
f 1/1/1 2/2/2 3/4/3
f 3/4/3 2/2/2 4/3/4
s 2
f 3/5/5 4/6/6 5/8/7
f 5/8/7 4/6/6 6/7/8
s 3
f 5/9/9 6/10/10 7/12/11
f 7/12/11 6/10/10 8/11/12
s 4
f 7/13/13 8/14/14 1/16/15
f 1/16/15 8/14/14 2/15/16
s 5
f 2/17/17 8/18/18 4/20/19
f 4/20/19 8/18/18 6/19/20
s 6
f 7/21/21 1/22/22 5/24/23
f 5/24/23 1/22/22 3/23/24
g default
v -0.130751 3.201148 2.000000
v 3.869249 3.201148 2.000000
v -0.130751 15.201148 2.000000
v 3.869249 15.201148 2.000000
v -0.130751 15.201148 -2.000000
v 3.869249 15.201148 -2.000000
v -0.130751 3.201148 -2.000000
v 3.869249 3.201148 -2.000000
vt 0.063880 0.007622
vt 0.124519 0.007622
vt 0.124519 0.336283
vt 0.063880 0.336283
vt 0.068147 0.380866
vt 0.115981 0.380866
vt 0.115981 0.496954
vt 0.068147 0.496954
vt 0.185639 0.332522
vt 0.245970 0.332522
vt 0.245970 0.009140
vt 0.185639 0.009140
vt 0.133000 0.378912
vt 0.183422 0.378912
vt 0.183422 0.494980
vt 0.133000 0.494980
vt 0.125129 0.006618
vt 0.183810 0.006618
vt 0.183810 0.330977
vt 0.125129 0.330977
vt 0.002064 0.007299
vt 0.065032 0.007299
vt 0.065032 0.330849
vt 0.002064 0.330849
vn 0.000000 0.000000 1.000000
vn 0.000000 0.000000 1.000000
vn 0.000000 0.000000 1.000000
vn 0.000000 0.000000 1.000000
vn 0.000000 1.000000 0.000000
vn 0.000000 1.000000 0.000000
vn 0.000000 1.000000 0.000000
vn 0.000000 1.000000 0.000000
vn 0.000000 0.000000 -1.000000
vn 0.000000 0.000000 -1.000000
vn 0.000000 0.000000 -1.000000
vn 0.000000 0.000000 -1.000000
vn 0.000000 -1.000000 0.000000
vn 0.000000 -1.000000 0.000000
vn 0.000000 -1.000000 0.000000
vn 0.000000 -1.000000 0.000000
vn 1.000000 0.000000 0.000000
vn 1.000000 0.000000 0.000000
vn 1.000000 0.000000 0.000000
vn 1.000000 0.000000 0.000000
vn -1.000000 0.000000 0.000000
vn -1.000000 0.000000 0.000000
vn -1.000000 0.000000 0.000000
vn -1.000000 0.000000 0.000000
s 1
g initialShadingGroup pCube9
f 9/25/25 10/26/26 11/28/27
f 11/28/27 10/26/26 12/27/28
s 2
f 11/29/29 12/30/30 13/32/31
f 13/32/31 12/30/30 14/31/32
s 3
f 13/33/33 14/34/34 15/36/35
f 15/36/35 14/34/34 16/35/36
s 4
f 15/37/37 16/38/38 9/40/39
f 9/40/39 16/38/38 10/39/40
s 5
f 10/41/41 16/42/42 12/44/43
f 12/44/43 16/42/42 14/43/44
s 6
f 15/45/45 9/46/46 13/48/47
f 13/48/47 9/46/46 11/47/48
g default
v -4.067978 3.201148 2.000000
v -0.067978 3.201148 2.000000
v -4.067978 15.201148 2.000000
v -0.067978 15.201148 2.000000
v -4.067978 15.201148 -2.000000
v -0.067978 15.201148 -2.000000
v -4.067978 3.201148 -2.000000
v -0.067978 3.201148 -2.000000
vt 0.063880 0.007622
vt 0.124519 0.007622
vt 0.124519 0.336283
vt 0.063880 0.336283
vt 0.068147 0.380866
vt 0.115981 0.380866
vt 0.115981 0.496954
vt 0.068147 0.496954
vt 0.185639 0.332522
vt 0.245970 0.332522
vt 0.245970 0.009140
vt 0.185639 0.009140
vt 0.133000 0.378912
vt 0.183422 0.378912
vt 0.183422 0.494980
vt 0.133000 0.494980
vt 0.125129 0.006618
vt 0.183810 0.006618
vt 0.183810 0.330977
vt 0.125129 0.330977
vt 0.002064 0.007299
vt 0.065032 0.007299
vt 0.065032 0.330849
vt 0.002064 0.330849
vn 0.000000 0.000000 1.000000
vn 0.000000 0.000000 1.000000
vn 0.000000 0.000000 1.000000
vn 0.000000 0.000000 1.000000
vn 0.000000 1.000000 0.000000
vn 0.000000 1.000000 0.000000
vn 0.000000 1.000000 0.000000
vn 0.000000 1.000000 0.000000
vn 0.000000 0.000000 -1.000000
vn 0.000000 0.000000 -1.000000
vn 0.000000 0.000000 -1.000000
vn 0.000000 0.000000 -1.000000
vn 0.000000 -1.000000 0.000000
vn 0.000000 -1.000000 0.000000
vn 0.000000 -1.000000 0.000000
vn 0.000000 -1.000000 0.000000
vn 1.000000 0.000000 0.000000
vn 1.000000 0.000000 0.000000
vn 1.000000 0.000000 0.000000
vn 1.000000 0.000000 0.000000
vn -1.000000 0.000000 0.000000
vn -1.000000 0.000000 0.000000
vn -1.000000 0.000000 0.000000
vn -1.000000 0.000000 0.000000
s 1
g pCube6
f 17/49/49 18/50/50 19/52/51
f 19/52/51 18/50/50 20/51/52
s 2
f 19/53/53 20/54/54 21/56/55
f 21/56/55 20/54/54 22/55/56
s 3
f 21/57/57 22/58/58 23/60/59
f 23/60/59 22/58/58 24/59/60
s 4
f 23/61/61 24/62/62 17/64/63
f 17/64/63 24/62/62 18/63/64
s 5
f 18/65/65 24/66/66 20/68/67
f 20/68/67 24/66/66 22/67/68
s 6
f 23/69/69 17/70/70 21/72/71
f 21/72/71 17/70/70 19/71/72
g default
v -0.130751 3.201148 2.000000
v 3.869249 3.201148 2.000000
v -0.130751 15.201148 2.000000
v 3.869249 15.201148 2.000000
v -0.130751 15.201148 -2.000000
v 3.869249 15.201148 -2.000000
v -0.130751 3.201148 -2.000000
v 3.869249 3.201148 -2.000000
vt 0.063880 0.007622
vt 0.124519 0.007622
vt 0.124519 0.336283
vt 0.063880 0.336283
vt 0.068147 0.380866
vt 0.115981 0.380866
vt 0.115981 0.496954
vt 0.068147 0.496954
vt 0.185639 0.332522
vt 0.245970 0.332522
vt 0.245970 0.009140
vt 0.185639 0.009140
vt 0.133000 0.378912
vt 0.183422 0.378912
vt 0.183422 0.494980
vt 0.133000 0.494980
vt 0.125129 0.006618
vt 0.183810 0.006618
vt 0.183810 0.330977
vt 0.125129 0.330977
vt 0.002064 0.007299
vt 0.065032 0.007299
vt 0.065032 0.330849
vt 0.002064 0.330849
vn 0.000000 0.000000 1.000000
vn 0.000000 0.000000 1.000000
vn 0.000000 0.000000 1.000000
vn 0.000000 0.000000 1.000000
vn 0.000000 1.000000 0.000000
vn 0.000000 1.000000 0.000000
vn 0.000000 1.000000 0.000000
vn 0.000000 1.000000 0.000000
vn 0.000000 0.000000 -1.000000
vn 0.000000 0.000000 -1.000000
vn 0.000000 0.000000 -1.000000
vn 0.000000 0.000000 -1.000000
vn 0.000000 -1.000000 0.000000
vn 0.000000 -1.000000 0.000000
vn 0.000000 -1.000000 0.000000
vn 0.000000 -1.000000 0.000000
vn 1.000000 0.000000 0.000000
vn 1.000000 0.000000 0.000000
vn 1.000000 0.000000 0.000000
vn 1.000000 0.000000 0.000000
vn -1.000000 0.000000 0.000000
vn -1.000000 0.000000 0.000000
vn -1.000000 0.000000 0.000000
vn -1.000000 0.000000 0.000000
s 1
g pCube9
f 25/73/73 26/74/74 27/76/75
f 27/76/75 26/74/74 28/75/76
s 2
f 27/77/77 28/78/78 29/80/79
f 29/80/79 28/78/78 30/79/80
s 3
f 29/81/81 30/82/82 31/84/83
f 31/84/83 30/82/82 32/83/84
s 4
f 31/85/85 32/86/86 25/88/87
f 25/88/87 32/86/86 26/87/88
s 5
f 26/89/89 32/90/90 28/92/91
f 28/92/91 32/90/90 30/91/92
s 6
f 31/93/93 25/94/94 29/96/95
f 29/96/95 25/94/94 27/95/96
