# This file uses centimeters as units for non-parametric coordinates.

mtllib hand.mtl
g CharR_default2
v -2.392698 1.396953 0.808127
v -2.354746 1.262940 -0.415816
v -6.243279 -0.001802 0.841882
v -6.205326 -0.135815 -0.382061
v -5.824299 -1.151844 0.980796
v -5.786347 -1.285857 -0.243148
v -1.973719 0.246911 0.947041
v -1.935766 0.112898 -0.276902
v -2.392698 1.396953 0.808127
v -2.354746 1.262940 -0.415816
v -6.243279 -0.001802 0.841882
v -6.205326 -0.135815 -0.382061
v -5.824299 -1.151844 0.980796
v -5.786347 -1.285857 -0.243148
v -1.973719 0.246911 0.947041
v -1.935766 0.112898 -0.276902
vt 0.688054 0.002465
vt 0.750305 0.002465
vt 0.750305 0.369700
vt 0.688054 0.369700
vt 0.688016 0.380585
vt 0.750732 0.380585
vt 0.750732 0.484427
vt 0.688016 0.484427
vt 0.688843 0.371273
vt 0.750950 0.371273
vt 0.750950 0.001518
vt 0.688843 0.001518
vt 0.754995 0.380457
vt 0.801845 0.380457
vt 0.801845 0.480528
vt 0.754995 0.480528
vt 0.811723 0.001474
vt 0.874064 0.001474
vt 0.874064 0.370132
vt 0.811723 0.370132
vt 0.690239 -0.000305
vt 0.749176 -0.000305
vt 0.749176 0.372000
vt 0.690239 0.372000
vt 0.688054 0.002465
vt 0.750305 0.002465
vt 0.750305 0.369700
vt 0.688054 0.369700
vt 0.688016 0.380585
vt 0.750732 0.380585
vt 0.750732 0.484427
vt 0.688016 0.484427
vt 0.688843 0.371273
vt 0.750950 0.371273
vt 0.750950 0.001518
vt 0.688843 0.001518
vt 0.754995 0.380457
vt 0.801845 0.380457
vt 0.801845 0.480528
vt 0.754995 0.480528
vt 0.811723 0.001474
vt 0.874064 0.001474
vt 0.874064 0.370132
vt 0.811723 0.370132
vt 0.690239 -0.000305
vt 0.749176 -0.000305
vt 0.749176 0.372000
vt 0.690239 0.372000
vn -0.340124 0.933594 -0.112769
vn -0.340124 0.933594 -0.112769
vn -0.340124 0.933594 -0.112769
vn -0.340124 0.933594 -0.112769
vn -0.340124 0.933594 -0.112769
vn -0.340124 0.933594 -0.112769
vn -0.939876 -0.341418 0.008239
vn -0.939876 -0.341418 0.008239
vn -0.939876 -0.341418 0.008239
vn -0.939876 -0.341418 0.008239
vn -0.939876 -0.341418 0.008239
vn -0.939876 -0.341418 0.008239
vn 0.340124 -0.933594 0.112769
vn 0.340124 -0.933594 0.112769
vn 0.340124 -0.933594 0.112769
vn 0.340124 -0.933594 0.112769
vn 0.340124 -0.933594 0.112769
vn 0.340124 -0.933594 0.112769
vn 0.939876 0.341418 -0.008239
vn 0.939876 0.341418 -0.008239
vn 0.939876 0.341418 -0.008239
vn 0.939876 0.341418 -0.008239
vn 0.939876 0.341418 -0.008239
vn 0.939876 0.341418 -0.008239
vn 0.030809 -0.108791 -0.993587
vn 0.030809 -0.108791 -0.993587
vn 0.030809 -0.108791 -0.993587
vn 0.030809 -0.108791 -0.993587
vn 0.030809 -0.108791 -0.993587
vn 0.030809 -0.108791 -0.993587
vn -0.030809 0.108791 0.993587
vn -0.030809 0.108791 0.993587
vn -0.030809 0.108791 0.993587
vn -0.030809 0.108791 0.993587
vn -0.030809 0.108791 0.993587
vn -0.030809 0.108791 0.993587
vn -0.340124 0.933594 -0.112769
vn -0.340124 0.933594 -0.112769
vn -0.340124 0.933594 -0.112769
vn -0.340124 0.933594 -0.112769
vn -0.340124 0.933594 -0.112769
vn -0.340124 0.933594 -0.112769
vn -0.939876 -0.341418 0.008239
vn -0.939876 -0.341418 0.008239
vn -0.939876 -0.341418 0.008239
vn -0.939876 -0.341418 0.008239
vn -0.939876 -0.341418 0.008239
vn -0.939876 -0.341418 0.008239
vn 0.340124 -0.933594 0.112769
vn 0.340124 -0.933594 0.112769
vn 0.340124 -0.933594 0.112769
vn 0.340124 -0.933594 0.112769
vn 0.340124 -0.933594 0.112769
vn 0.340124 -0.933594 0.112769
vn 0.939876 0.341418 -0.008239
vn 0.939876 0.341418 -0.008239
vn 0.939876 0.341418 -0.008239
vn 0.939876 0.341418 -0.008239
vn 0.939876 0.341418 -0.008239
vn 0.939876 0.341418 -0.008239
vn 0.030809 -0.108791 -0.993587
vn 0.030809 -0.108791 -0.993587
vn 0.030809 -0.108791 -0.993587
vn 0.030809 -0.108791 -0.993587
vn 0.030809 -0.108791 -0.993587
vn 0.030809 -0.108791 -0.993587
vn -0.030809 0.108791 0.993587
vn -0.030809 0.108791 0.993587
vn -0.030809 0.108791 0.993587
vn -0.030809 0.108791 0.993587
vn -0.030809 0.108791 0.993587
vn -0.030809 0.108791 0.993587
s off
g CharR_initialShadingGroup1 CharR_pCube8 CharR_polySurface2
usemtl initialShadingGroup
f 1/1/1 2/2/2 3/4/3
f 3/4/4 2/2/5 4/3/6
f 3/5/7 4/6/8 5/8/9
f 5/8/10 4/6/11 6/7/12
f 5/9/13 6/10/14 7/12/15
f 7/12/16 6/10/17 8/11/18
f 7/13/19 8/14/20 1/16/21
f 1/16/22 8/14/23 2/15/24
f 2/17/25 8/18/26 4/20/27
f 4/20/28 8/18/29 6/19/30
f 7/21/31 1/22/32 5/24/33
f 5/24/34 1/22/35 3/23/36
g CharR_pCube8 CharR_polySurface2
f 9/25/37 10/26/38 11/28/39
f 11/28/40 10/26/41 12/27/42
f 11/29/43 12/30/44 13/32/45
f 13/32/46 12/30/47 14/31/48
f 13/33/49 14/34/50 15/36/51
f 15/36/52 14/34/53 16/35/54
f 15/37/55 16/38/56 9/40/57
f 9/40/58 16/38/59 10/39/60
f 10/41/61 16/42/62 12/44/63
f 12/44/64 16/42/65 14/43/66
f 15/45/67 9/46/68 13/48/69
f 13/48/70 9/46/71 11/47/72
