# This file uses centimeters as units for non-parametric coordinates.

mtllib Missile.mtl
g default
v 0.088683 0.624334 -0.151079
v 0.088048 0.695354 -0.290462
v 0.087545 0.805970 -0.401077
v 0.087221 0.945354 -0.472096
v 0.087110 1.099863 -0.496567
v 0.087221 1.254371 -0.472096
v 0.087545 1.393756 -0.401077
v 0.088048 1.504371 -0.290462
v 0.088683 1.575391 -0.151079
v 0.089386 1.599863 0.003428
v 0.090089 1.575391 0.157935
v 0.090723 1.504371 0.297317
v 0.091227 1.393756 0.407932
v 0.091550 1.254371 0.478951
v 0.091661 1.099863 0.503423
v 0.091550 0.945354 0.478951
v 0.091227 0.805970 0.407932
v 0.090723 0.695354 0.297317
v 0.090089 0.624335 0.157935
v 0.089386 0.599863 0.003428
v 3.695136 0.624334 -0.167494
v 3.694502 0.695354 -0.306877
v 3.693999 0.805970 -0.417491
v 3.693675 0.945354 -0.488510
v 3.693564 1.099863 -0.512982
v 3.693675 1.254371 -0.488510
v 3.693999 1.393756 -0.417491
v 3.694502 1.504371 -0.306876
v 3.695136 1.575391 -0.167494
v 3.695840 1.599863 -0.012987
v 3.696543 1.575391 0.141520
v 3.697177 1.504371 0.280903
v 3.697681 1.393756 0.391518
v 3.698004 1.254371 0.462537
v 3.698115 1.099863 0.487008
v 3.698004 0.945354 0.462537
v 3.697681 0.805970 0.391518
v 3.697177 0.695354 0.280903
v 3.696543 0.624335 0.141520
v 3.695840 0.599863 -0.012987
v 4.590040 0.343688 -0.262755
v 4.589031 0.456622 -0.484399
v 4.588231 0.632521 -0.660296
v 4.587717 0.854167 -0.773229
v 4.587539 1.099863 -0.812143
v 4.587717 1.345559 -0.773229
v 4.588231 1.567204 -0.660296
v 4.589031 1.743103 -0.484398
v 4.590040 1.856037 -0.262755
v 4.591158 1.894952 -0.017062
v 4.592276 1.856037 0.228632
v 4.593285 1.743103 0.450275
v 4.594086 1.567204 0.626172
v 4.594600 1.345559 0.739105
v 4.594777 1.099863 0.778019
v 4.594600 0.854167 0.739105
v 4.594086 0.632521 0.626172
v 4.593285 0.456623 0.450275
v 4.592276 0.343688 0.228632
v 4.591158 0.304774 -0.017062
v 5.642416 0.588042 -0.188149
v 5.641733 0.664482 -0.338169
v 5.641191 0.783540 -0.457226
v 5.640843 0.933562 -0.533665
v 5.640723 1.099863 -0.560004
v 5.640843 1.266163 -0.533665
v 5.641191 1.416185 -0.457226
v 5.641733 1.535243 -0.338169
v 5.642416 1.611683 -0.188149
v 5.643173 1.638023 -0.021850
v 5.643929 1.611683 0.144449
v 5.644612 1.535243 0.294469
v 5.645154 1.416185 0.413526
v 5.645502 1.266163 0.489965
v 5.645622 1.099863 0.516304
v 5.645502 0.933562 0.489965
v 5.645154 0.783541 0.413526
v 5.644612 0.664482 0.294469
v 5.643929 0.588043 0.144449
v 5.643173 0.561703 -0.021850
v 0.089386 1.099863 0.003428
v 7.412059 1.099863 -0.029901
v 0.085319 0.605458 0.005317
v 0.085319 -0.010954 0.005317
v 1.411845 0.605458 -0.000720
v 0.701724 -0.010954 0.002512
v 1.411817 0.605458 -0.006885
v 0.701696 -0.010954 -0.003652
v 0.085291 0.605458 -0.000847
v 0.085291 -0.010954 -0.000847
v 0.087580 1.095901 0.487104
v 0.087580 1.095901 1.103516
v 1.414107 1.089864 0.487104
v 0.703986 1.093096 1.103516
v 1.414079 1.083700 0.487104
v 0.703958 1.086932 1.103516
v 0.087552 1.089737 0.487104
v 0.087552 1.089737 1.103516
v 0.088359 1.075272 -0.486988
v 0.088359 1.075272 -1.103400
v 1.414885 1.081309 -0.486988
v 0.704764 1.078077 -1.103400
v 1.414857 1.087473 -0.486988
v 0.704736 1.084241 -1.103400
v 0.088331 1.081436 -0.486988
v 0.088331 1.081436 -1.103400
v 0.094153 1.588876 -0.046778
v 0.092673 2.205261 -0.041228
v 1.420627 1.591946 -0.033874
v 0.709054 2.206688 -0.035232
v 1.420568 1.591891 -0.027710
v 0.708994 2.206632 -0.029068
v 0.094093 1.588821 -0.040615
v 0.092613 2.205206 -0.035065
vt 0.238536 0.114126
vt 0.224552 0.086682
vt 0.202772 0.064902
vt 0.175328 0.050918
vt 0.144906 0.046100
vt 0.114483 0.050918
vt 0.087039 0.064902
vt 0.065259 0.086682
vt 0.051276 0.114126
vt 0.046457 0.144549
vt 0.051276 0.174971
vt 0.065259 0.202415
vt 0.087039 0.224195
vt 0.114483 0.238179
vt 0.144906 0.242997
vt 0.175328 0.238179
vt 0.202772 0.224195
vt 0.224552 0.202415
vt 0.238536 0.174971
vt 0.243354 0.144549
vt 0.002761 0.308953
vt 0.018217 0.308953
vt 0.033673 0.308953
vt 0.049128 0.308953
vt 0.064584 0.308953
vt 0.080040 0.308953
vt 0.095495 0.308953
vt 0.110951 0.308953
vt 0.126406 0.308953
vt 0.141862 0.308953
vt 0.157318 0.308953
vt 0.172773 0.308953
vt 0.188229 0.308953
vt 0.203685 0.308953
vt 0.219140 0.308953
vt 0.234596 0.308953
vt 0.250052 0.308953
vt 0.265507 0.308953
vt 0.280963 0.308953
vt 0.296419 0.308953
vt 0.311874 0.308953
vt 0.002761 0.587852
vt 0.018217 0.587852
vt 0.033673 0.587852
vt 0.049128 0.587852
vt 0.064584 0.587852
vt 0.080040 0.587852
vt 0.095495 0.587852
vt 0.110951 0.587852
vt 0.126406 0.587852
vt 0.141862 0.587852
vt 0.157318 0.587852
vt 0.172773 0.587852
vt 0.188229 0.587852
vt 0.203685 0.587852
vt 0.219140 0.587852
vt 0.234596 0.587852
vt 0.250052 0.587852
vt 0.265507 0.587852
vt 0.280963 0.587852
vt 0.296419 0.587852
vt 0.311874 0.587852
vt 0.002761 0.680819
vt 0.018217 0.680819
vt 0.033673 0.680819
vt 0.049128 0.680819
vt 0.064584 0.680819
vt 0.080040 0.680819
vt 0.095495 0.680819
vt 0.110951 0.680819
vt 0.126406 0.680819
vt 0.141862 0.680819
vt 0.157318 0.680819
vt 0.172773 0.680819
vt 0.188229 0.680819
vt 0.203685 0.680819
vt 0.219140 0.680819
vt 0.234596 0.680819
vt 0.250052 0.680819
vt 0.265507 0.680819
vt 0.280963 0.680819
vt 0.296419 0.680819
vt 0.311874 0.680819
vt 0.002761 0.773785
vt 0.018217 0.773785
vt 0.033673 0.773785
vt 0.049128 0.773785
vt 0.064584 0.773785
vt 0.080040 0.773785
vt 0.095495 0.773785
vt 0.110951 0.773785
vt 0.126406 0.773785
vt 0.141862 0.773785
vt 0.157318 0.773785
vt 0.172773 0.773785
vt 0.188229 0.773785
vt 0.203685 0.773785
vt 0.219140 0.773785
vt 0.234596 0.773785
vt 0.250052 0.773785
vt 0.265507 0.773785
vt 0.280963 0.773785
vt 0.296419 0.773785
vt 0.311874 0.773785
vt 0.260155 0.856272
vt 0.245093 0.826710
vt 0.221633 0.803250
vt 0.192071 0.788188
vt 0.159301 0.782997
vt 0.126532 0.788188
vt 0.096970 0.803250
vt 0.073510 0.826710
vt 0.058448 0.856272
vt 0.053257 0.889041
vt 0.058448 0.921811
vt 0.073510 0.951373
vt 0.096970 0.974833
vt 0.126532 0.989895
vt 0.159301 0.995085
vt 0.192071 0.989895
vt 0.221632 0.974833
vt 0.245093 0.951373
vt 0.260155 0.921811
vt 0.265345 0.889041
vt 0.144906 0.140611
vt 0.159301 0.884800
vt 0.556806 0.029033
vt 0.745504 0.029033
vt 0.745504 0.217730
vt 0.556806 0.217730
vt 0.745504 0.406428
vt 0.556806 0.406428
vt 0.745504 0.595125
vt 0.556806 0.595125
vt 0.745504 0.783822
vt 0.556806 0.783822
vt 0.934201 0.029033
vt 0.934201 0.217730
vt 0.368109 0.029033
vt 0.368109 0.217730
vt 0.556806 0.029033
vt 0.745504 0.029033
vt 0.745504 0.217730
vt 0.556806 0.217730
vt 0.745504 0.406428
vt 0.556806 0.406428
vt 0.745504 0.595125
vt 0.556806 0.595125
vt 0.745504 0.783822
vt 0.556806 0.783822
vt 0.934201 0.029033
vt 0.934201 0.217730
vt 0.368109 0.029033
vt 0.368109 0.217730
vt 0.556806 0.029033
vt 0.745504 0.029033
vt 0.745504 0.217730
vt 0.556806 0.217730
vt 0.745504 0.406428
vt 0.556806 0.406428
vt 0.745504 0.595125
vt 0.556806 0.595125
vt 0.745504 0.783822
vt 0.556806 0.783822
vt 0.934201 0.029033
vt 0.934201 0.217730
vt 0.368109 0.029033
vt 0.368109 0.217730
vt 0.556806 0.029033
vt 0.745504 0.029033
vt 0.745504 0.217730
vt 0.556806 0.217730
vt 0.745504 0.406428
vt 0.556806 0.406428
vt 0.745504 0.595125
vt 0.556806 0.595125
vt 0.745504 0.783822
vt 0.556806 0.783822
vt 0.934201 0.029033
vt 0.934201 0.217730
vt 0.368109 0.029033
vt 0.368109 0.217730
vn -0.002675 -0.809017 -0.587779
vn -0.084454 -0.806307 -0.585438
vn -0.083190 -0.947870 -0.307605
vn -0.001406 -0.951057 -0.309013
vn -0.003682 -0.587785 -0.809009
vn -0.085458 -0.585816 -0.805926
vn -0.004329 -0.309017 -0.951047
vn -0.086102 -0.307982 -0.947488
vn -0.004551 0.000000 -0.999990
vn -0.086324 0.000000 -0.996267
vn -0.004329 0.309017 -0.951047
vn -0.086102 0.307982 -0.947488
vn -0.003682 0.587786 -0.809008
vn -0.085458 0.585816 -0.805926
vn -0.002675 0.809017 -0.587779
vn -0.084454 0.806307 -0.585438
vn -0.001406 0.951057 -0.309014
vn -0.083190 0.947870 -0.307606
vn -0.000000 1.000000 0.000000
vn -0.081788 0.996650 0.000372
vn 0.001406 0.951057 0.309014
vn -0.080386 0.947870 0.308351
vn 0.002675 0.809017 0.587779
vn -0.079122 0.806307 0.586182
vn 0.003682 0.587785 0.809009
vn -0.078118 0.585816 0.806671
vn 0.004329 0.309017 0.951047
vn -0.077474 0.307982 0.948233
vn 0.004551 -0.000000 0.999990
vn -0.077252 -0.000000 0.997012
vn 0.004329 -0.309017 0.951047
vn -0.077474 -0.307982 0.948233
vn 0.003682 -0.587785 0.809009
vn -0.078118 -0.585816 0.806670
vn 0.002675 -0.809017 0.587779
vn -0.079122 -0.806307 0.586182
vn 0.001406 -0.951057 0.309014
vn -0.080386 -0.947870 0.308351
vn 0.000000 -1.000000 0.000001
vn -0.081788 -0.996650 0.000373
vn -0.017032 -0.808934 -0.587653
vn -0.015763 -0.950959 -0.308916
vn -0.018038 -0.587725 -0.808860
vn -0.018685 -0.308985 -0.950883
vn -0.018908 0.000000 -0.999821
vn -0.018685 0.308985 -0.950883
vn -0.018038 0.587725 -0.808860
vn -0.017032 0.808934 -0.587653
vn -0.015763 0.950959 -0.308916
vn -0.014357 0.999897 0.000066
vn -0.012951 0.950959 0.309047
vn -0.011682 0.808934 0.587784
vn -0.010675 0.587725 0.808991
vn -0.010029 0.308985 0.951014
vn -0.009806 -0.000000 0.999952
vn -0.010029 -0.308985 0.951014
vn -0.010675 -0.587725 0.808991
vn -0.011682 -0.808934 0.587784
vn -0.012951 -0.950959 0.309047
vn -0.014357 -0.999897 0.000066
vn 0.234649 -0.785918 -0.572077
vn 0.235882 -0.923903 -0.301270
vn 0.233671 -0.571003 -0.786990
vn 0.233043 -0.300194 -0.924973
vn 0.232827 0.000000 -0.972518
vn 0.233043 0.300194 -0.924973
vn 0.233671 0.571003 -0.786990
vn 0.234649 0.785918 -0.572077
vn 0.235881 0.923903 -0.301271
vn 0.237248 0.971449 -0.001080
vn 0.238614 0.923903 0.299111
vn 0.239847 0.785918 0.569918
vn 0.240825 0.571003 0.784831
vn 0.241453 0.300194 0.922813
vn 0.241669 0.000000 0.970359
vn 0.241453 -0.300194 0.922813
vn 0.240825 -0.571003 0.784831
vn 0.239847 -0.785918 0.569918
vn 0.238614 -0.923903 0.299111
vn 0.237248 -0.971449 -0.001079
vn -0.999990 0.000000 0.004551
vn -0.999990 -0.000000 0.004551
vn -0.999990 -0.000000 0.004551
vn -0.999990 0.000000 0.004551
vn -0.999990 -0.000000 0.004551
vn -0.999990 -0.000000 0.004551
vn -0.999990 0.000000 0.004551
vn -0.999990 -0.000000 0.004551
vn -0.999990 -0.000000 0.004551
vn -0.999990 0.000000 0.004551
vn -0.999990 -0.000000 0.004551
vn -0.999990 -0.000000 0.004551
vn -0.999990 0.000000 0.004551
vn -0.999990 0.000000 0.004551
vn -0.999990 -0.000000 0.004551
vn -0.999990 -0.000000 0.004551
vn -0.999990 0.000000 0.004551
vn -0.999990 -0.000000 0.004551
vn -0.999990 -0.000000 0.004551
vn -0.999990 0.000000 0.004551
vn -0.999990 -0.000000 0.004551
vn 0.289713 -0.909880 -0.296958
vn 0.288499 -0.773990 -0.563656
vn 0.999990 0.000002 -0.004545
vn 0.287536 -0.562337 -0.775307
vn 0.286917 -0.295638 -0.911195
vn 0.286704 -0.000000 -0.958019
vn 0.286917 0.295638 -0.911195
vn 0.287536 0.562337 -0.775307
vn 0.288499 0.773990 -0.563656
vn 0.289713 0.909880 -0.296959
vn 0.291058 0.956704 -0.001323
vn 0.292404 0.909880 0.294311
vn 0.293618 0.773990 0.561006
vn 0.294581 0.562337 0.772658
vn 0.295199 0.295638 0.908546
vn 0.295413 -0.000000 0.955370
vn 0.295200 -0.295638 0.908546
vn 0.294581 -0.562337 0.772657
vn 0.293618 -0.773990 0.561006
vn 0.292404 -0.909880 0.294311
vn 0.291058 -0.956704 -0.001322
vn 0.004551 0.000000 0.999990
vn 0.004551 0.000000 0.999990
vn 0.004551 0.000000 0.999990
vn 0.004551 0.000000 0.999990
vn 0.655511 -0.755180 -0.002972
vn 0.655511 -0.755180 -0.002972
vn 0.655511 -0.755180 -0.002972
vn 0.655511 -0.755180 -0.002972
vn -0.004551 -0.000000 -0.999990
vn -0.004551 -0.000000 -0.999990
vn -0.004551 -0.000000 -0.999990
vn -0.004551 -0.000000 -0.999990
vn -0.999990 -0.000000 0.004554
vn -0.999990 -0.000000 0.004554
vn -0.999990 -0.000000 0.004554
vn -0.999990 -0.000000 0.004554
vn -0.000000 -1.000000 0.000000
vn -0.000000 -1.000000 0.000000
vn -0.000000 -1.000000 0.000000
vn -0.000000 -1.000000 0.000000
vn -0.000000 1.000000 0.000000
vn -0.000000 1.000000 0.000000
vn -0.000000 1.000000 0.000000
vn -0.000000 1.000000 0.000000
vn 0.004551 0.999990 0.000000
vn 0.004551 0.999990 0.000000
vn 0.004551 0.999990 0.000000
vn 0.004551 0.999990 0.000000
vn 0.655511 -0.002983 0.755180
vn 0.655511 -0.002983 0.755180
vn 0.655511 -0.002983 0.755180
vn 0.655511 -0.002983 0.755180
vn -0.004551 -0.999990 0.000000
vn -0.004551 -0.999990 0.000000
vn -0.004551 -0.999990 0.000000
vn -0.004551 -0.999990 0.000000
vn -0.999990 0.004554 0.000000
vn -0.999990 0.004554 0.000000
vn -0.999990 0.004554 0.000000
vn -0.999990 0.004554 0.000000
vn 0.000000 -0.000016 1.000000
vn 0.000000 -0.000016 1.000000
vn 0.000000 -0.000016 1.000000
vn 0.000000 -0.000016 1.000000
vn 0.000000 0.000000 -1.000000
vn 0.000000 0.000000 -1.000000
vn 0.000000 0.000000 -1.000000
vn 0.000000 0.000000 -1.000000
vn 0.004551 -0.999990 -0.000000
vn 0.004551 -0.999990 -0.000000
vn 0.004551 -0.999990 -0.000000
vn 0.004551 -0.999990 -0.000000
vn 0.655511 0.002983 -0.755180
vn 0.655511 0.002983 -0.755180
vn 0.655511 0.002983 -0.755180
vn 0.655511 0.002983 -0.755180
vn -0.004551 0.999990 0.000000
vn -0.004551 0.999990 0.000000
vn -0.004551 0.999990 0.000000
vn -0.004551 0.999990 0.000000
vn -0.999990 -0.004554 0.000000
vn -0.999990 -0.004554 0.000000
vn -0.999990 -0.004554 0.000000
vn -0.999990 -0.004554 0.000000
vn -0.000000 0.000016 -1.000000
vn -0.000000 0.000016 -1.000000
vn -0.000000 0.000016 -1.000000
vn -0.000000 0.000016 -1.000000
vn 0.000000 0.000000 1.000000
vn 0.000000 0.000000 1.000000
vn 0.000000 0.000000 1.000000
vn 0.000000 0.000000 1.000000
vn 0.009707 0.009027 -0.999912
vn 0.009707 0.009027 -0.999912
vn 0.009707 0.009027 -0.999912
vn 0.009707 0.009027 -0.999912
vn 0.653671 0.756664 0.013181
vn 0.653671 0.756664 0.013181
vn 0.653671 0.756664 0.013181
vn 0.653671 0.756664 0.013181
vn -0.009707 -0.009027 0.999912
vn -0.009707 -0.009027 0.999912
vn -0.009707 -0.009027 0.999912
vn -0.009707 -0.009027 0.999912
vn -0.999950 -0.002314 -0.009729
vn -0.999950 -0.002314 -0.009729
vn -0.999950 -0.002314 -0.009729
vn -0.999950 -0.002314 -0.009729
vn -0.002402 0.999957 0.009008
vn -0.002402 0.999957 0.009008
vn -0.002402 0.999957 0.009008
vn -0.002402 0.999957 0.009008
vn 0.002402 -0.999957 -0.009009
vn 0.002402 -0.999957 -0.009009
vn 0.002402 -0.999957 -0.009009
vn 0.002402 -0.999957 -0.009009
s 1
g pCylinder2
usemtl lambert2SG
f 2/22/1 22/43/2 21/42/3 1/21/4
f 3/23/5 23/44/6 22/43/2 2/22/1
f 4/24/7 24/45/8 23/44/6 3/23/5
f 5/25/9 25/46/10 24/45/8 4/24/7
f 6/26/11 26/47/12 25/46/10 5/25/9
f 7/27/13 27/48/14 26/47/12 6/26/11
f 8/28/15 28/49/16 27/48/14 7/27/13
f 9/29/17 29/50/18 28/49/16 8/28/15
f 10/30/19 30/51/20 29/50/18 9/29/17
f 11/31/21 31/52/22 30/51/20 10/30/19
f 12/32/23 32/53/24 31/52/22 11/31/21
f 13/33/25 33/54/26 32/53/24 12/32/23
f 14/34/27 34/55/28 33/54/26 13/33/25
f 15/35/29 35/56/30 34/55/28 14/34/27
f 16/36/31 36/57/32 35/56/30 15/35/29
f 17/37/33 37/58/34 36/57/32 16/36/31
f 18/38/35 38/59/36 37/58/34 17/37/33
f 19/39/37 39/60/38 38/59/36 18/38/35
f 20/40/39 40/61/40 39/60/38 19/39/37
f 1/41/4 21/62/3 40/61/40 20/40/39
f 21/42/3 22/43/2 42/64/41 41/63/42
f 22/43/2 23/44/6 43/65/43 42/64/41
f 23/44/6 24/45/8 44/66/44 43/65/43
f 24/45/8 25/46/10 45/67/45 44/66/44
f 25/46/10 26/47/12 46/68/46 45/67/45
f 26/47/12 27/48/14 47/69/47 46/68/46
f 27/48/14 28/49/16 48/70/48 47/69/47
f 28/49/16 29/50/18 49/71/49 48/70/48
f 29/50/18 30/51/20 50/72/50 49/71/49
f 30/51/20 31/52/22 51/73/51 50/72/50
f 31/52/22 32/53/24 52/74/52 51/73/51
f 32/53/24 33/54/26 53/75/53 52/74/52
f 33/54/26 34/55/28 54/76/54 53/75/53
f 34/55/28 35/56/30 55/77/55 54/76/54
f 35/56/30 36/57/32 56/78/56 55/77/55
f 36/57/32 37/58/34 57/79/57 56/78/56
f 37/58/34 38/59/36 58/80/58 57/79/57
f 38/59/36 39/60/38 59/81/59 58/80/58
f 39/60/38 40/61/40 60/82/60 59/81/59
f 40/61/40 21/62/3 41/83/42 60/82/60
f 41/63/42 42/64/41 62/85/61 61/84/62
f 42/64/41 43/65/43 63/86/63 62/85/61
f 43/65/43 44/66/44 64/87/64 63/86/63
f 44/66/44 45/67/45 65/88/65 64/87/64
f 45/67/45 46/68/46 66/89/66 65/88/65
f 46/68/46 47/69/47 67/90/67 66/89/66
f 47/69/47 48/70/48 68/91/68 67/90/67
f 48/70/48 49/71/49 69/92/69 68/91/68
f 49/71/49 50/72/50 70/93/70 69/92/69
f 50/72/50 51/73/51 71/94/71 70/93/70
f 51/73/51 52/74/52 72/95/72 71/94/71
f 52/74/52 53/75/53 73/96/73 72/95/72
f 53/75/53 54/76/54 74/97/74 73/96/73
f 54/76/54 55/77/55 75/98/75 74/97/74
f 55/77/55 56/78/56 76/99/76 75/98/75
f 56/78/56 57/79/57 77/100/77 76/99/76
f 57/79/57 58/80/58 78/101/78 77/100/77
f 58/80/58 59/81/59 79/102/79 78/101/78
f 59/81/59 60/82/60 80/103/80 79/102/79
f 60/82/60 41/83/42 61/104/62 80/103/80
s 2
f 2/2/81 1/1/82 81/125/83
f 3/3/84 2/2/81 81/125/83
f 4/4/85 3/3/84 81/125/83
f 5/5/86 4/4/85 81/125/83
f 6/6/87 5/5/86 81/125/83
f 7/7/88 6/6/87 81/125/83
f 8/8/89 7/7/88 81/125/83
f 9/9/90 8/8/89 81/125/83
f 10/10/91 9/9/90 81/125/83
f 11/11/92 10/10/91 81/125/83
f 12/12/93 11/11/92 81/125/83
f 13/13/94 12/12/93 81/125/83
f 14/14/95 13/13/94 81/125/83
f 15/15/96 14/14/95 81/125/83
f 16/16/97 15/15/96 81/125/83
f 17/17/98 16/16/97 81/125/83
f 18/18/99 17/17/98 81/125/83
f 19/19/100 18/18/99 81/125/83
f 20/20/101 19/19/100 81/125/83
f 1/1/82 20/20/101 81/125/83
s 3
f 61/123/102 62/122/103 82/126/104
f 62/122/103 63/121/105 82/126/104
f 63/121/105 64/120/106 82/126/104
f 64/120/106 65/119/107 82/126/104
f 65/119/107 66/118/108 82/126/104
f 66/118/108 67/117/109 82/126/104
f 67/117/109 68/116/110 82/126/104
f 68/116/110 69/115/111 82/126/104
f 69/115/111 70/114/112 82/126/104
f 70/114/112 71/113/113 82/126/104
f 71/113/113 72/112/114 82/126/104
f 72/112/114 73/111/115 82/126/104
f 73/111/115 74/110/116 82/126/104
f 74/110/116 75/109/117 82/126/104
f 75/109/117 76/108/118 82/126/104
f 76/108/118 77/107/119 82/126/104
f 77/107/119 78/106/120 82/126/104
f 78/106/120 79/105/121 82/126/104
f 79/105/121 80/124/122 82/126/104
f 80/124/122 61/123/102 82/126/104
s off
f 83/127/123 84/128/124 86/129/125 85/130/126
f 85/130/127 86/129/128 88/131/129 87/132/130
f 87/132/131 88/131/132 90/133/133 89/134/134
f 89/134/135 90/133/136 84/135/137 83/136/138
f 84/128/139 90/137/140 88/138/141 86/129/142
f 89/139/143 83/127/144 85/130/145 87/140/146
f 91/141/147 92/142/148 94/143/149 93/144/150
f 93/144/151 94/143/152 96/145/153 95/146/154
f 95/146/155 96/145/156 98/147/157 97/148/158
f 97/148/159 98/147/160 92/149/161 91/150/162
f 92/142/163 98/151/164 96/152/165 94/143/166
f 97/153/167 91/141/168 93/144/169 95/154/170
f 99/155/171 100/156/172 102/157/173 101/158/174
f 101/158/175 102/157/176 104/159/177 103/160/178
f 103/160/179 104/159/180 106/161/181 105/162/182
f 105/162/183 106/161/184 100/163/185 99/164/186
f 100/156/187 106/165/188 104/166/189 102/157/190
f 105/167/191 99/155/192 101/158/193 103/168/194
f 107/169/195 108/170/196 110/171/197 109/172/198
f 109/172/199 110/171/200 112/173/201 111/174/202
f 111/174/203 112/173/204 114/175/205 113/176/206
f 113/176/207 114/175/208 108/177/209 107/178/210
f 108/170/211 114/179/212 112/180/213 110/171/214
f 113/181/215 107/169/216 109/172/217 111/182/218
