# This file uses centimeters as units for non-parametric coordinates.

mtllib rawMaterial2.mtl
g default
v -0.370316 0.043806 0.435818
v 0.012046 0.043806 0.580604
v 0.450895 0.043806 0.382244
v -0.487954 0.543806 0.180961
v 0.012046 0.543806 0.506544
v 0.270197 0.543806 0.301027
v -0.286496 1.043806 0.161142
v 0.012046 1.043806 0.305085
v 0.191810 1.043806 0.191566
v -0.286496 1.043806 0.006544
v 0.126688 1.120747 0.006544
v 0.310587 1.043806 0.006544
v -0.263412 1.043806 -0.134592
v 0.012046 1.043806 -0.291997
v 0.203832 1.043806 -0.263953
v -0.240788 0.543806 -0.493456
v 0.012046 0.543806 -0.583986
v 0.369710 0.543806 -0.493456
v -0.409186 0.043806 -0.427172
v 0.012046 0.043806 -0.567516
v 0.497760 0.043806 -0.457142
v -0.562015 0.043806 0.006544
v 0.012046 0.043806 0.006544
v 0.586106 0.043806 0.006544
v 0.512046 0.543806 0.006544
v -0.487954 0.543806 0.006544
vt 0.375000 0.000000
vt 0.500000 0.000000
vt 0.500000 0.125000
vt 0.375000 0.125000
vt 0.625000 0.000000
vt 0.625000 0.125000
vt 0.500000 0.250000
vt 0.375000 0.250000
vt 0.625000 0.250000
vt 0.500000 0.375000
vt 0.375000 0.375000
vt 0.625000 0.375000
vt 0.500000 0.500000
vt 0.375000 0.500000
vt 0.625000 0.500000
vt 0.500000 0.625000
vt 0.375000 0.625000
vt 0.625000 0.625000
vt 0.500000 0.750000
vt 0.375000 0.750000
vt 0.625000 0.750000
vt 0.500000 0.875000
vt 0.375000 0.875000
vt 0.625000 0.875000
vt 0.500000 1.000000
vt 0.375000 1.000000
vt 0.625000 1.000000
vt 0.750000 0.000000
vt 0.875000 0.000000
vt 0.875000 0.125000
vt 0.750000 0.125000
vt 0.875000 0.250000
vt 0.750000 0.250000
vt 0.125000 0.000000
vt 0.250000 0.000000
vt 0.250000 0.125000
vt 0.125000 0.125000
vt 0.250000 0.250000
vt 0.125000 0.250000
vn -0.457949 0.228687 0.859061
vn -0.042158 0.254548 0.966141
vn -0.071333 0.284065 0.956148
vn -0.472782 0.255613 0.843291
vn -0.042158 0.254548 0.966141
vn 0.489139 0.219463 0.844144
vn 0.518939 0.245094 0.818921
vn -0.071333 0.284065 0.956148
vn -0.472782 0.255613 0.843291
vn -0.071333 0.284065 0.956148
vn -0.108085 0.328326 0.938360
vn -0.486427 0.281054 0.827283
vn -0.071333 0.284065 0.956148
vn 0.518939 0.245094 0.818921
vn 0.564399 0.285112 0.774704
vn -0.108085 0.328326 0.938360
vn -0.133089 0.982128 0.133089
vn -0.060681 0.984966 0.161742
vn 0.040813 0.999167 0.000000
vn -0.138419 0.990346 0.007396
vn -0.060681 0.984966 0.161742
vn 0.282056 0.917000 0.282056
vn 0.246326 0.968999 -0.019085
vn 0.040813 0.999167 0.000000
vn -0.138419 0.990346 0.007396
vn 0.040813 0.999167 0.000000
vn -0.023374 0.985565 -0.167678
vn -0.141887 0.979661 -0.141887
vn 0.040813 0.999167 0.000000
vn 0.246326 0.968999 -0.019085
vn 0.211218 0.954345 -0.211218
vn -0.023374 0.985565 -0.167678
vn -0.367580 0.501446 -0.783222
vn -0.117349 0.511004 -0.851531
vn -0.055372 0.214995 -0.975044
vn -0.358335 0.232592 -0.904155
vn -0.117349 0.511004 -0.851531
vn 0.185247 0.478374 -0.858395
vn 0.221894 0.162788 -0.961386
vn -0.055372 0.214995 -0.975044
vn -0.358335 0.232592 -0.904155
vn -0.055372 0.214995 -0.975044
vn -0.020023 -0.023512 -0.999523
vn -0.323939 -0.023716 -0.945781
vn -0.055372 0.214995 -0.975044
vn 0.221894 0.162788 -0.961386
vn 0.231675 -0.021669 -0.972552
vn -0.020023 -0.023512 -0.999523
vn 0.000000 -1.000000 0.000000
vn 0.000000 -1.000000 0.000000
vn 0.000000 -1.000000 0.000000
vn 0.000000 -1.000000 0.000000
vn 0.000000 -1.000000 0.000000
vn 0.000000 -1.000000 0.000000
vn 0.000000 -1.000000 0.000000
vn 0.000000 -1.000000 0.000000
vn 0.000000 -1.000000 0.000000
vn 0.000000 -1.000000 0.000000
vn 0.000000 -1.000000 0.000000
vn 0.000000 -1.000000 0.000000
vn 0.000000 -1.000000 0.000000
vn 0.000000 -1.000000 0.000000
vn 0.000000 -1.000000 0.000000
vn 0.000000 -1.000000 0.000000
vn 0.969607 0.229746 0.084143
vn 0.955763 0.184862 -0.228785
vn 0.927452 0.274329 -0.254118
vn 0.952713 0.293296 0.079476
vn 0.843105 0.253313 0.474348
vn 0.969607 0.229746 0.084143
vn 0.952713 0.293296 0.079476
vn 0.811250 0.264865 0.521268
vn 0.952713 0.293296 0.079476
vn 0.927452 0.274329 -0.254118
vn 0.877239 0.387328 -0.283599
vn 0.921285 0.378074 0.091076
vn 0.811250 0.264865 0.521268
vn 0.952713 0.293296 0.079476
vn 0.921285 0.378074 0.091076
vn 0.767690 0.278034 0.577364
vn -0.901911 0.193066 -0.386370
vn -0.980708 0.142184 -0.134144
vn -0.959975 0.214007 -0.180689
vn -0.895873 0.227464 -0.381669
vn -0.980708 0.142184 -0.134144
vn -0.952498 0.035576 0.302461
vn -0.966139 0.139065 0.217340
vn -0.959975 0.214007 -0.180689
vn -0.895873 0.227464 -0.381669
vn -0.959975 0.214007 -0.180689
vn -0.910964 0.322649 -0.256988
vn -0.881598 0.291017 -0.371610
vn -0.959975 0.214007 -0.180689
vn -0.966139 0.139065 0.217340
vn -0.927541 0.373722 0.000000
vn -0.910964 0.322649 -0.256988
s off
g initialShadingGroup pCube1
f 1/1/1 2/2/2 5/3/3 4/4/4
f 2/2/5 3/5/6 6/6/7 5/3/8
f 4/4/9 5/3/10 8/7/11 7/8/12
f 5/3/13 6/6/14 9/9/15 8/7/16
f 7/8/17 8/7/18 11/10/19 10/11/20
f 8/7/21 9/9/22 12/12/23 11/10/24
f 10/11/25 11/10/26 14/13/27 13/14/28
f 11/10/29 12/12/30 15/15/31 14/13/32
f 13/14/33 14/13/34 17/16/35 16/17/36
f 14/13/37 15/15/38 18/18/39 17/16/40
f 16/17/41 17/16/42 20/19/43 19/20/44
f 17/16/45 18/18/46 21/21/47 20/19/48
f 19/20/49 20/19/50 23/22/51 22/23/52
f 20/19/53 21/21/54 24/24/55 23/22/56
f 22/23/57 23/22/58 2/25/59 1/26/60
f 23/22/61 24/24/62 3/27/63 2/25/64
f 24/28/65 21/29/66 18/30/67 25/31/68
f 3/5/69 24/28/70 25/31/71 6/6/72
f 25/31/73 18/30/74 15/32/75 12/33/76
f 6/6/77 25/31/78 12/33/79 9/9/80
f 19/34/81 22/35/82 26/36/83 16/37/84
f 22/35/85 1/1/86 4/4/87 26/36/88
f 16/37/89 26/36/90 10/38/91 13/39/92
f 26/36/93 4/4/94 7/8/95 10/38/96
