# This file uses centimeters as units for non-parametric coordinates.

mtllib SpaceDoor.mtl
g default
v -0.438989 -0.115186 3.228708
v -0.299232 -0.115186 3.228708
v -0.438989 3.955496 3.228708
v -0.299232 3.955496 3.228708
v -0.438989 3.955496 -2.666209
v -0.299232 3.955496 -2.666209
v -0.438989 -0.115186 -2.666209
v -0.299232 -0.115186 -2.666209
vt 0.062248 0.650996
vt 0.312248 0.650996
vt 0.312248 0.900996
vt 0.062248 0.900996
vt 0.077177 0.652180
vt 0.327177 0.652180
vt 0.327177 0.902180
vt 0.077177 0.902180
vt 0.049807 0.643411
vt 0.299807 0.643411
vt 0.299807 0.893411
vt 0.049807 0.893411
vt 0.062248 0.647083
vt 0.312248 0.647083
vt 0.312248 0.897083
vt 0.062248 0.897083
vt 0.014579 0.014108
vt 0.987789 0.014108
vt 0.987789 0.987317
vt 0.014579 0.987317
vt 0.063552 0.650996
vt 0.313552 0.650996
vt 0.313552 0.900996
vt 0.063552 0.900996
vn 0.000000 0.000000 1.000000
vn 0.000000 0.000000 1.000000
vn 0.000000 0.000000 1.000000
vn 0.000000 0.000000 1.000000
vn 0.000000 1.000000 0.000000
vn 0.000000 1.000000 0.000000
vn 0.000000 1.000000 0.000000
vn 0.000000 1.000000 0.000000
vn 0.000000 0.000000 -1.000000
vn 0.000000 0.000000 -1.000000
vn 0.000000 0.000000 -1.000000
vn 0.000000 0.000000 -1.000000
vn 0.000000 -1.000000 0.000000
vn 0.000000 -1.000000 0.000000
vn 0.000000 -1.000000 0.000000
vn 0.000000 -1.000000 0.000000
vn 1.000000 0.000000 0.000000
vn 1.000000 0.000000 0.000000
vn 1.000000 0.000000 0.000000
vn 1.000000 0.000000 0.000000
vn -1.000000 0.000000 0.000000
vn -1.000000 0.000000 0.000000
vn -1.000000 0.000000 0.000000
vn -1.000000 0.000000 0.000000
s off
g pCube32
usemtl initialShadingGroup1
f 1/1/1 2/2/2 4/3/3 3/4/4
f 3/5/5 4/6/6 6/7/7 5/8/8
f 5/9/9 6/10/10 8/11/11 7/12/12
f 7/13/13 8/14/14 2/15/15 1/16/16
f 2/17/17 8/18/18 6/19/19 4/20/20
f 7/21/21 1/22/22 3/23/23 5/24/24
