# This file uses centimeters as units for non-parametric coordinates.

mtllib table.mtl
g default
v -4.000113 2.121011 1.869651
v 4.000113 2.121011 1.869651
v -4.000113 2.519520 1.869651
v 4.000113 2.519520 1.869651
v -4.000113 2.519520 -1.869651
v 4.000113 2.519520 -1.869651
v -4.000113 2.121011 -1.869651
v 4.000113 2.121011 -1.869651
v 3.565820 -0.021109 -1.503948
v 3.963513 -0.021109 -1.503948
v 3.565820 2.138044 -1.503948
v 3.963513 2.138044 -1.503948
v 3.565820 2.138044 -1.866613
v 3.963513 2.138044 -1.866613
v 3.565820 -0.021109 -1.866613
v 3.963513 -0.021109 -1.866613
v 3.565820 -0.021109 1.858647
v 3.963513 -0.021109 1.858647
v 3.565820 2.138044 1.858647
v 3.963513 2.138044 1.858647
v 3.565820 2.138044 1.495981
v 3.963513 2.138044 1.495981
v 3.565820 -0.021109 1.495981
v 3.963513 -0.021109 1.495981
v -3.987271 -0.021109 1.858647
v -3.589577 -0.021109 1.858647
v -3.987271 2.138044 1.858647
v -3.589577 2.138044 1.858647
v -3.987271 2.138044 1.495981
v -3.589577 2.138044 1.495981
v -3.987271 -0.021109 1.495981
v -3.589577 -0.021109 1.495981
v -3.987271 -0.021109 -1.498541
v -3.589577 -0.021109 -1.498541
v -3.987271 2.138044 -1.498541
v -3.589577 2.138044 -1.498541
v -3.987271 2.138044 -1.861207
v -3.589577 2.138044 -1.861207
v -3.987271 -0.021109 -1.861207
v -3.589577 -0.021109 -1.861207
vt 0.526524 0.028962
vt 0.967647 0.028962
vt 0.967647 0.470086
vt 0.526524 0.470086
vt 0.525783 0.027305
vt 0.966907 0.027305
vt 0.966907 0.468429
vt 0.525783 0.468429
vt 0.529482 0.027726
vt 0.970606 0.027726
vt 0.970606 0.468850
vt 0.529482 0.468850
vt 0.525879 0.031209
vt 0.967002 0.031209
vt 0.967002 0.472332
vt 0.525879 0.472332
vt 0.523781 0.028252
vt 0.964904 0.028252
vt 0.964904 0.469375
vt 0.523781 0.469375
vt 0.527484 0.027759
vt 0.968607 0.027759
vt 0.968607 0.468883
vt 0.527484 0.468883
vt 0.626254 0.108650
vt 0.876254 0.108650
vt 0.876254 0.358650
vt 0.626254 0.358650
vt 0.623990 0.109660
vt 0.873990 0.109660
vt 0.873990 0.359660
vt 0.623990 0.359660
vt 0.623990 0.110669
vt 0.873990 0.110669
vt 0.873990 0.360669
vt 0.623990 0.360669
vt 0.628518 0.109415
vt 0.878518 0.109415
vt 0.878518 0.359415
vt 0.628518 0.359415
vt 0.625000 0.108650
vt 0.875000 0.108650
vt 0.875000 0.358650
vt 0.625000 0.358650
vt 0.627508 0.106387
vt 0.877508 0.106387
vt 0.877508 0.356387
vt 0.627508 0.356387
vt 0.626254 0.108650
vt 0.876254 0.108650
vt 0.876254 0.358650
vt 0.626254 0.358650
vt 0.623990 0.109660
vt 0.873990 0.109660
vt 0.873990 0.359660
vt 0.623990 0.359660
vt 0.623990 0.110669
vt 0.873990 0.110669
vt 0.873990 0.360669
vt 0.623990 0.360669
vt 0.628518 0.109415
vt 0.878518 0.109415
vt 0.878518 0.359415
vt 0.628518 0.359415
vt 0.625000 0.108650
vt 0.875000 0.108650
vt 0.875000 0.358650
vt 0.625000 0.358650
vt 0.627508 0.106387
vt 0.877508 0.106387
vt 0.877508 0.356387
vt 0.627508 0.356387
vt 0.626254 0.108650
vt 0.876254 0.108650
vt 0.876254 0.358650
vt 0.626254 0.358650
vt 0.623990 0.109660
vt 0.873990 0.109660
vt 0.873990 0.359660
vt 0.623990 0.359660
vt 0.623990 0.110669
vt 0.873990 0.110669
vt 0.873990 0.360669
vt 0.623990 0.360669
vt 0.628518 0.109415
vt 0.878518 0.109415
vt 0.878518 0.359415
vt 0.628518 0.359415
vt 0.625000 0.108650
vt 0.875000 0.108650
vt 0.875000 0.358650
vt 0.625000 0.358650
vt 0.627508 0.106387
vt 0.877508 0.106387
vt 0.877508 0.356387
vt 0.627508 0.356387
vt 0.626254 0.108650
vt 0.876254 0.108650
vt 0.876254 0.358650
vt 0.626254 0.358650
vt 0.623990 0.109660
vt 0.873990 0.109660
vt 0.873990 0.359660
vt 0.623990 0.359660
vt 0.623990 0.110669
vt 0.873990 0.110669
vt 0.873990 0.360669
vt 0.623990 0.360669
vt 0.628518 0.109415
vt 0.878518 0.109415
vt 0.878518 0.359415
vt 0.628518 0.359415
vt 0.625000 0.108650
vt 0.875000 0.108650
vt 0.875000 0.358650
vt 0.625000 0.358650
vt 0.627508 0.106387
vt 0.877508 0.106387
vt 0.877508 0.356387
vt 0.627508 0.356387
vn 0.000000 0.000000 1.000000
vn 0.000000 0.000000 1.000000
vn 0.000000 0.000000 1.000000
vn 0.000000 0.000000 1.000000
vn 0.000000 1.000000 0.000000
vn 0.000000 1.000000 0.000000
vn 0.000000 1.000000 0.000000
vn 0.000000 1.000000 0.000000
vn 0.000000 0.000000 -1.000000
vn 0.000000 0.000000 -1.000000
vn 0.000000 0.000000 -1.000000
vn 0.000000 0.000000 -1.000000
vn 0.000000 -1.000000 0.000000
vn 0.000000 -1.000000 0.000000
vn 0.000000 -1.000000 0.000000
vn 0.000000 -1.000000 0.000000
vn 1.000000 0.000000 0.000000
vn 1.000000 0.000000 0.000000
vn 1.000000 0.000000 0.000000
vn 1.000000 0.000000 0.000000
vn -1.000000 0.000000 0.000000
vn -1.000000 0.000000 0.000000
vn -1.000000 0.000000 0.000000
vn -1.000000 0.000000 0.000000
vn 0.000000 0.000000 1.000000
vn 0.000000 0.000000 1.000000
vn 0.000000 0.000000 1.000000
vn 0.000000 0.000000 1.000000
vn 0.000000 1.000000 0.000000
vn 0.000000 1.000000 0.000000
vn 0.000000 1.000000 0.000000
vn 0.000000 1.000000 0.000000
vn 0.000000 0.000000 -1.000000
vn 0.000000 0.000000 -1.000000
vn 0.000000 0.000000 -1.000000
vn 0.000000 0.000000 -1.000000
vn 0.000000 -1.000000 0.000000
vn 0.000000 -1.000000 0.000000
vn 0.000000 -1.000000 0.000000
vn 0.000000 -1.000000 0.000000
vn 1.000000 0.000000 0.000000
vn 1.000000 0.000000 0.000000
vn 1.000000 0.000000 0.000000
vn 1.000000 0.000000 0.000000
vn -1.000000 0.000000 0.000000
vn -1.000000 0.000000 0.000000
vn -1.000000 0.000000 0.000000
vn -1.000000 0.000000 0.000000
vn 0.000000 0.000000 1.000000
vn 0.000000 0.000000 1.000000
vn 0.000000 0.000000 1.000000
vn 0.000000 0.000000 1.000000
vn 0.000000 1.000000 0.000000
vn 0.000000 1.000000 0.000000
vn 0.000000 1.000000 0.000000
vn 0.000000 1.000000 0.000000
vn 0.000000 0.000000 -1.000000
vn 0.000000 0.000000 -1.000000
vn 0.000000 0.000000 -1.000000
vn 0.000000 0.000000 -1.000000
vn 0.000000 -1.000000 0.000000
vn 0.000000 -1.000000 0.000000
vn 0.000000 -1.000000 0.000000
vn 0.000000 -1.000000 0.000000
vn 1.000000 0.000000 0.000000
vn 1.000000 0.000000 0.000000
vn 1.000000 0.000000 0.000000
vn 1.000000 0.000000 0.000000
vn -1.000000 0.000000 0.000000
vn -1.000000 0.000000 0.000000
vn -1.000000 0.000000 0.000000
vn -1.000000 0.000000 0.000000
vn 0.000000 0.000000 1.000000
vn 0.000000 0.000000 1.000000
vn 0.000000 0.000000 1.000000
vn 0.000000 0.000000 1.000000
vn 0.000000 1.000000 0.000000
vn 0.000000 1.000000 0.000000
vn 0.000000 1.000000 0.000000
vn 0.000000 1.000000 0.000000
vn 0.000000 0.000000 -1.000000
vn 0.000000 0.000000 -1.000000
vn 0.000000 0.000000 -1.000000
vn 0.000000 0.000000 -1.000000
vn 0.000000 -1.000000 0.000000
vn 0.000000 -1.000000 0.000000
vn 0.000000 -1.000000 0.000000
vn 0.000000 -1.000000 0.000000
vn 1.000000 0.000000 0.000000
vn 1.000000 0.000000 0.000000
vn 1.000000 0.000000 0.000000
vn 1.000000 0.000000 0.000000
vn -1.000000 0.000000 0.000000
vn -1.000000 0.000000 0.000000
vn -1.000000 0.000000 0.000000
vn -1.000000 0.000000 0.000000
vn 0.000000 0.000000 1.000000
vn 0.000000 0.000000 1.000000
vn 0.000000 0.000000 1.000000
vn 0.000000 0.000000 1.000000
vn 0.000000 1.000000 0.000000
vn 0.000000 1.000000 0.000000
vn 0.000000 1.000000 0.000000
vn 0.000000 1.000000 0.000000
vn 0.000000 0.000000 -1.000000
vn 0.000000 0.000000 -1.000000
vn 0.000000 0.000000 -1.000000
vn 0.000000 0.000000 -1.000000
vn 0.000000 -1.000000 0.000000
vn 0.000000 -1.000000 0.000000
vn 0.000000 -1.000000 0.000000
vn 0.000000 -1.000000 0.000000
vn 1.000000 0.000000 0.000000
vn 1.000000 0.000000 0.000000
vn 1.000000 0.000000 0.000000
vn 1.000000 0.000000 0.000000
vn -1.000000 0.000000 0.000000
vn -1.000000 0.000000 0.000000
vn -1.000000 0.000000 0.000000
vn -1.000000 0.000000 0.000000
s 1
g pCube8
usemtl lambert2SG
f 1/1/1 2/2/2 3/4/3
f 3/4/3 2/2/2 4/3/4
s 2
f 3/5/5 4/6/6 5/8/7
f 5/8/7 4/6/6 6/7/8
s 3
f 5/9/9 6/10/10 7/12/11
f 7/12/11 6/10/10 8/11/12
s 4
f 7/13/13 8/14/14 1/16/15
f 1/16/15 8/14/14 2/15/16
s 5
f 2/17/17 8/18/18 4/20/19
f 4/20/19 8/18/18 6/19/20
s 6
f 7/21/21 1/22/22 5/24/23
f 5/24/23 1/22/22 3/23/24
s 7
f 9/25/25 10/26/26 11/28/27
f 11/28/27 10/26/26 12/27/28
s 8
f 11/29/29 12/30/30 13/32/31
f 13/32/31 12/30/30 14/31/32
s 9
f 13/33/33 14/34/34 15/36/35
f 15/36/35 14/34/34 16/35/36
s 10
f 15/37/37 16/38/38 9/40/39
f 9/40/39 16/38/38 10/39/40
s 11
f 10/41/41 16/42/42 12/44/43
f 12/44/43 16/42/42 14/43/44
s 12
f 15/45/45 9/46/46 13/48/47
f 13/48/47 9/46/46 11/47/48
s 13
f 17/49/49 18/50/50 19/52/51
f 19/52/51 18/50/50 20/51/52
s 14
f 19/53/53 20/54/54 21/56/55
f 21/56/55 20/54/54 22/55/56
s 15
f 21/57/57 22/58/58 23/60/59
f 23/60/59 22/58/58 24/59/60
s 16
f 23/61/61 24/62/62 17/64/63
f 17/64/63 24/62/62 18/63/64
s 17
f 18/65/65 24/66/66 20/68/67
f 20/68/67 24/66/66 22/67/68
s 18
f 23/69/69 17/70/70 21/72/71
f 21/72/71 17/70/70 19/71/72
s 19
f 25/73/73 26/74/74 27/76/75
f 27/76/75 26/74/74 28/75/76
s 20
f 27/77/77 28/78/78 29/80/79
f 29/80/79 28/78/78 30/79/80
s 21
f 29/81/81 30/82/82 31/84/83
f 31/84/83 30/82/82 32/83/84
s 22
f 31/85/85 32/86/86 25/88/87
f 25/88/87 32/86/86 26/87/88
s 23
f 26/89/89 32/90/90 28/92/91
f 28/92/91 32/90/90 30/91/92
s 24
f 31/93/93 25/94/94 29/96/95
f 29/96/95 25/94/94 27/95/96
s 25
f 33/97/97 34/98/98 35/100/99
f 35/100/99 34/98/98 36/99/100
s 26
f 35/101/101 36/102/102 37/104/103
f 37/104/103 36/102/102 38/103/104
s 27
f 37/105/105 38/106/106 39/108/107
f 39/108/107 38/106/106 40/107/108
s 28
f 39/109/109 40/110/110 33/112/111
f 33/112/111 40/110/110 34/111/112
s 29
f 34/113/113 40/114/114 36/116/115
f 36/116/115 40/114/114 38/115/116
s 30
f 39/117/117 33/118/118 37/120/119
f 37/120/119 33/118/118 35/119/120
g default
v -4.000113 2.121011 1.869651
v 4.000113 2.121011 1.869651
v -4.000113 2.519520 1.869651
v 4.000113 2.519520 1.869651
v -4.000113 2.519520 -1.869651
v 4.000113 2.519520 -1.869651
v -4.000113 2.121011 -1.869651
v 4.000113 2.121011 -1.869651
v 3.565820 -0.021109 -1.503948
v 3.963513 -0.021109 -1.503948
v 3.565820 2.138044 -1.503948
v 3.963513 2.138044 -1.503948
v 3.565820 2.138044 -1.866613
v 3.963513 2.138044 -1.866613
v 3.565820 -0.021109 -1.866613
v 3.963513 -0.021109 -1.866613
v 3.565820 -0.021109 1.858647
v 3.963513 -0.021109 1.858647
v 3.565820 2.138044 1.858647
v 3.963513 2.138044 1.858647
v 3.565820 2.138044 1.495981
v 3.963513 2.138044 1.495981
v 3.565820 -0.021109 1.495981
v 3.963513 -0.021109 1.495981
v -3.987271 -0.021109 1.858647
v -3.589577 -0.021109 1.858647
v -3.987271 2.138044 1.858647
v -3.589577 2.138044 1.858647
v -3.987271 2.138044 1.495981
v -3.589577 2.138044 1.495981
v -3.987271 -0.021109 1.495981
v -3.589577 -0.021109 1.495981
v -3.987271 -0.021109 -1.498541
v -3.589577 -0.021109 -1.498541
v -3.987271 2.138044 -1.498541
v -3.589577 2.138044 -1.498541
v -3.987271 2.138044 -1.861207
v -3.589577 2.138044 -1.861207
v -3.987271 -0.021109 -1.861207
v -3.589577 -0.021109 -1.861207
vt 0.526524 0.028962
vt 0.967647 0.028962
vt 0.967647 0.470086
vt 0.526524 0.470086
vt 0.525783 0.027305
vt 0.966907 0.027305
vt 0.966907 0.468429
vt 0.525783 0.468429
vt 0.529482 0.027726
vt 0.970606 0.027726
vt 0.970606 0.468850
vt 0.529482 0.468850
vt 0.525879 0.031209
vt 0.967002 0.031209
vt 0.967002 0.472332
vt 0.525879 0.472332
vt 0.523781 0.028252
vt 0.964904 0.028252
vt 0.964904 0.469375
vt 0.523781 0.469375
vt 0.527484 0.027759
vt 0.968607 0.027759
vt 0.968607 0.468883
vt 0.527484 0.468883
vt 0.626254 0.108650
vt 0.876254 0.108650
vt 0.876254 0.358650
vt 0.626254 0.358650
vt 0.623990 0.109660
vt 0.873990 0.109660
vt 0.873990 0.359660
vt 0.623990 0.359660
vt 0.623990 0.110669
vt 0.873990 0.110669
vt 0.873990 0.360669
vt 0.623990 0.360669
vt 0.628518 0.109415
vt 0.878518 0.109415
vt 0.878518 0.359415
vt 0.628518 0.359415
vt 0.625000 0.108650
vt 0.875000 0.108650
vt 0.875000 0.358650
vt 0.625000 0.358650
vt 0.627508 0.106387
vt 0.877508 0.106387
vt 0.877508 0.356387
vt 0.627508 0.356387
vt 0.626254 0.108650
vt 0.876254 0.108650
vt 0.876254 0.358650
vt 0.626254 0.358650
vt 0.623990 0.109660
vt 0.873990 0.109660
vt 0.873990 0.359660
vt 0.623990 0.359660
vt 0.623990 0.110669
vt 0.873990 0.110669
vt 0.873990 0.360669
vt 0.623990 0.360669
vt 0.628518 0.109415
vt 0.878518 0.109415
vt 0.878518 0.359415
vt 0.628518 0.359415
vt 0.625000 0.108650
vt 0.875000 0.108650
vt 0.875000 0.358650
vt 0.625000 0.358650
vt 0.627508 0.106387
vt 0.877508 0.106387
vt 0.877508 0.356387
vt 0.627508 0.356387
vt 0.626254 0.108650
vt 0.876254 0.108650
vt 0.876254 0.358650
vt 0.626254 0.358650
vt 0.623990 0.109660
vt 0.873990 0.109660
vt 0.873990 0.359660
vt 0.623990 0.359660
vt 0.623990 0.110669
vt 0.873990 0.110669
vt 0.873990 0.360669
vt 0.623990 0.360669
vt 0.628518 0.109415
vt 0.878518 0.109415
vt 0.878518 0.359415
vt 0.628518 0.359415
vt 0.625000 0.108650
vt 0.875000 0.108650
vt 0.875000 0.358650
vt 0.625000 0.358650
vt 0.627508 0.106387
vt 0.877508 0.106387
vt 0.877508 0.356387
vt 0.627508 0.356387
vt 0.626254 0.108650
vt 0.876254 0.108650
vt 0.876254 0.358650
vt 0.626254 0.358650
vt 0.623990 0.109660
vt 0.873990 0.109660
vt 0.873990 0.359660
vt 0.623990 0.359660
vt 0.623990 0.110669
vt 0.873990 0.110669
vt 0.873990 0.360669
vt 0.623990 0.360669
vt 0.628518 0.109415
vt 0.878518 0.109415
vt 0.878518 0.359415
vt 0.628518 0.359415
vt 0.625000 0.108650
vt 0.875000 0.108650
vt 0.875000 0.358650
vt 0.625000 0.358650
vt 0.627508 0.106387
vt 0.877508 0.106387
vt 0.877508 0.356387
vt 0.627508 0.356387
vn 0.000000 0.000000 1.000000
vn 0.000000 0.000000 1.000000
vn 0.000000 0.000000 1.000000
vn 0.000000 0.000000 1.000000
vn 0.000000 1.000000 0.000000
vn 0.000000 1.000000 0.000000
vn 0.000000 1.000000 0.000000
vn 0.000000 1.000000 0.000000
vn 0.000000 0.000000 -1.000000
vn 0.000000 0.000000 -1.000000
vn 0.000000 0.000000 -1.000000
vn 0.000000 0.000000 -1.000000
vn 0.000000 -1.000000 0.000000
vn 0.000000 -1.000000 0.000000
vn 0.000000 -1.000000 0.000000
vn 0.000000 -1.000000 0.000000
vn 1.000000 0.000000 0.000000
vn 1.000000 0.000000 0.000000
vn 1.000000 0.000000 0.000000
vn 1.000000 0.000000 0.000000
vn -1.000000 0.000000 0.000000
vn -1.000000 0.000000 0.000000
vn -1.000000 0.000000 0.000000
vn -1.000000 0.000000 0.000000
vn 0.000000 0.000000 1.000000
vn 0.000000 0.000000 1.000000
vn 0.000000 0.000000 1.000000
vn 0.000000 0.000000 1.000000
vn 0.000000 1.000000 0.000000
vn 0.000000 1.000000 0.000000
vn 0.000000 1.000000 0.000000
vn 0.000000 1.000000 0.000000
vn 0.000000 0.000000 -1.000000
vn 0.000000 0.000000 -1.000000
vn 0.000000 0.000000 -1.000000
vn 0.000000 0.000000 -1.000000
vn 0.000000 -1.000000 0.000000
vn 0.000000 -1.000000 0.000000
vn 0.000000 -1.000000 0.000000
vn 0.000000 -1.000000 0.000000
vn 1.000000 0.000000 0.000000
vn 1.000000 0.000000 0.000000
vn 1.000000 0.000000 0.000000
vn 1.000000 0.000000 0.000000
vn -1.000000 0.000000 0.000000
vn -1.000000 0.000000 0.000000
vn -1.000000 0.000000 0.000000
vn -1.000000 0.000000 0.000000
vn 0.000000 0.000000 1.000000
vn 0.000000 0.000000 1.000000
vn 0.000000 0.000000 1.000000
vn 0.000000 0.000000 1.000000
vn 0.000000 1.000000 0.000000
vn 0.000000 1.000000 0.000000
vn 0.000000 1.000000 0.000000
vn 0.000000 1.000000 0.000000
vn 0.000000 0.000000 -1.000000
vn 0.000000 0.000000 -1.000000
vn 0.000000 0.000000 -1.000000
vn 0.000000 0.000000 -1.000000
vn 0.000000 -1.000000 0.000000
vn 0.000000 -1.000000 0.000000
vn 0.000000 -1.000000 0.000000
vn 0.000000 -1.000000 0.000000
vn 1.000000 0.000000 0.000000
vn 1.000000 0.000000 0.000000
vn 1.000000 0.000000 0.000000
vn 1.000000 0.000000 0.000000
vn -1.000000 0.000000 0.000000
vn -1.000000 0.000000 0.000000
vn -1.000000 0.000000 0.000000
vn -1.000000 0.000000 0.000000
vn 0.000000 0.000000 1.000000
vn 0.000000 0.000000 1.000000
vn 0.000000 0.000000 1.000000
vn 0.000000 0.000000 1.000000
vn 0.000000 1.000000 0.000000
vn 0.000000 1.000000 0.000000
vn 0.000000 1.000000 0.000000
vn 0.000000 1.000000 0.000000
vn 0.000000 0.000000 -1.000000
vn 0.000000 0.000000 -1.000000
vn 0.000000 0.000000 -1.000000
vn 0.000000 0.000000 -1.000000
vn 0.000000 -1.000000 0.000000
vn 0.000000 -1.000000 0.000000
vn 0.000000 -1.000000 0.000000
vn 0.000000 -1.000000 0.000000
vn 1.000000 0.000000 0.000000
vn 1.000000 0.000000 0.000000
vn 1.000000 0.000000 0.000000
vn 1.000000 0.000000 0.000000
vn -1.000000 0.000000 0.000000
vn -1.000000 0.000000 0.000000
vn -1.000000 0.000000 0.000000
vn -1.000000 0.000000 0.000000
vn 0.000000 0.000000 1.000000
vn 0.000000 0.000000 1.000000
vn 0.000000 0.000000 1.000000
vn 0.000000 0.000000 1.000000
vn 0.000000 1.000000 0.000000
vn 0.000000 1.000000 0.000000
vn 0.000000 1.000000 0.000000
vn 0.000000 1.000000 0.000000
vn 0.000000 0.000000 -1.000000
vn 0.000000 0.000000 -1.000000
vn 0.000000 0.000000 -1.000000
vn 0.000000 0.000000 -1.000000
vn 0.000000 -1.000000 0.000000
vn 0.000000 -1.000000 0.000000
vn 0.000000 -1.000000 0.000000
vn 0.000000 -1.000000 0.000000
vn 1.000000 0.000000 0.000000
vn 1.000000 0.000000 0.000000
vn 1.000000 0.000000 0.000000
vn 1.000000 0.000000 0.000000
vn -1.000000 0.000000 0.000000
vn -1.000000 0.000000 0.000000
vn -1.000000 0.000000 0.000000
vn -1.000000 0.000000 0.000000
s 1
g pCube8
f 41/121/121 42/122/122 43/124/123
f 43/124/123 42/122/122 44/123/124
s 2
f 43/125/125 44/126/126 45/128/127
f 45/128/127 44/126/126 46/127/128
s 3
f 45/129/129 46/130/130 47/132/131
f 47/132/131 46/130/130 48/131/132
s 4
f 47/133/133 48/134/134 41/136/135
f 41/136/135 48/134/134 42/135/136
s 5
f 42/137/137 48/138/138 44/140/139
f 44/140/139 48/138/138 46/139/140
s 6
f 47/141/141 41/142/142 45/144/143
f 45/144/143 41/142/142 43/143/144
s 7
f 49/145/145 50/146/146 51/148/147
f 51/148/147 50/146/146 52/147/148
s 8
f 51/149/149 52/150/150 53/152/151
f 53/152/151 52/150/150 54/151/152
s 9
f 53/153/153 54/154/154 55/156/155
f 55/156/155 54/154/154 56/155/156
s 10
f 55/157/157 56/158/158 49/160/159
f 49/160/159 56/158/158 50/159/160
s 11
f 50/161/161 56/162/162 52/164/163
f 52/164/163 56/162/162 54/163/164
s 12
f 55/165/165 49/166/166 53/168/167
f 53/168/167 49/166/166 51/167/168
s 13
f 57/169/169 58/170/170 59/172/171
f 59/172/171 58/170/170 60/171/172
s 14
f 59/173/173 60/174/174 61/176/175
f 61/176/175 60/174/174 62/175/176
s 15
f 61/177/177 62/178/178 63/180/179
f 63/180/179 62/178/178 64/179/180
s 16
f 63/181/181 64/182/182 57/184/183
f 57/184/183 64/182/182 58/183/184
s 17
f 58/185/185 64/186/186 60/188/187
f 60/188/187 64/186/186 62/187/188
s 18
f 63/189/189 57/190/190 61/192/191
f 61/192/191 57/190/190 59/191/192
s 19
f 65/193/193 66/194/194 67/196/195
f 67/196/195 66/194/194 68/195/196
s 20
f 67/197/197 68/198/198 69/200/199
f 69/200/199 68/198/198 70/199/200
s 21
f 69/201/201 70/202/202 71/204/203
f 71/204/203 70/202/202 72/203/204
s 22
f 71/205/205 72/206/206 65/208/207
f 65/208/207 72/206/206 66/207/208
s 23
f 66/209/209 72/210/210 68/212/211
f 68/212/211 72/210/210 70/211/212
s 24
f 71/213/213 65/214/214 69/216/215
f 69/216/215 65/214/214 67/215/216
s 25
f 73/217/217 74/218/218 75/220/219
f 75/220/219 74/218/218 76/219/220
s 26
f 75/221/221 76/222/222 77/224/223
f 77/224/223 76/222/222 78/223/224
s 27
f 77/225/225 78/226/226 79/228/227
f 79/228/227 78/226/226 80/227/228
s 28
f 79/229/229 80/230/230 73/232/231
f 73/232/231 80/230/230 74/231/232
s 29
f 74/233/233 80/234/234 76/236/235
f 76/236/235 80/234/234 78/235/236
s 30
f 79/237/237 73/238/238 77/240/239
f 77/240/239 73/238/238 75/239/240
