# This file uses centimeters as units for non-parametric coordinates.

mtllib table.mtl
g default
v -0.742613 -0.012577 -11.583047
v 0.742613 -0.012577 -11.583047
v -0.742613 0.987423 -11.583047
v 0.742613 0.987423 -11.583047
v -0.742613 0.987423 -11.883307
v 0.742613 0.987423 -11.883307
v -0.742613 -0.012577 -11.883307
v 0.742613 -0.012577 -11.883307
v -1.204064 0.955209 12.034371
v 1.204064 0.955209 12.034371
v -1.204064 1.012002 12.034371
v 1.204064 1.012002 12.034371
v -1.204064 1.012002 -12.034371
v 1.204064 1.012002 -12.034371
v -1.204064 0.955209 -12.034371
v 1.204064 0.955209 -12.034371
v -0.742613 -0.011726 11.293135
v 0.742613 -0.011726 11.293135
v -0.742613 0.988274 11.293135
v 0.742613 0.988274 11.293135
v -0.742613 0.988274 10.992879
v 0.742613 0.988274 10.992879
v -0.742613 -0.011726 10.992879
v 0.742613 -0.011726 10.992879
vt 0.617740 0.347408
vt 0.867740 0.347408
vt 0.867740 0.597408
vt 0.617740 0.597408
vt 0.608832 0.325717
vt 0.858832 0.325717
vt 0.858832 0.575717
vt 0.608832 0.575717
vt 0.582108 0.315161
vt 0.832108 0.315161
vt 0.832108 0.565161
vt 0.582108 0.565161
vt 0.586562 0.353599
vt 0.836562 0.353599
vt 0.836562 0.603599
vt 0.586562 0.603599
vt 0.600503 0.327365
vt 0.850503 0.327365
vt 0.850503 0.577365
vt 0.600503 0.577365
vt 0.608253 0.340727
vt 0.858253 0.340727
vt 0.858253 0.590727
vt 0.608253 0.590727
vt 0.586562 0.347408
vt 0.836562 0.347408
vt 0.836562 0.597408
vt 0.586562 0.597408
vt 0.067839 0.119031
vt 0.402142 0.119031
vt 0.402142 0.871482
vt 0.067839 0.871482
vt 0.610713 0.342412
vt 0.860713 0.342412
vt 0.860713 0.592412
vt 0.610713 0.592412
vt 0.591016 0.344691
vt 0.841016 0.344691
vt 0.841016 0.594691
vt 0.591016 0.594691
vt 0.576007 0.349635
vt 0.826007 0.349635
vt 0.826007 0.599635
vt 0.576007 0.599635
vt 0.607011 0.343494
vt 0.857011 0.343494
vt 0.857011 0.593494
vt 0.607011 0.593494
vt 0.616093 0.333543
vt 0.866093 0.333543
vt 0.866093 0.583543
vt 0.616093 0.583543
vt 0.604941 0.312699
vt 0.854941 0.312699
vt 0.854941 0.562699
vt 0.604941 0.562699
vt 0.602517 0.320208
vt 0.852517 0.320208
vt 0.852517 0.570208
vt 0.602517 0.570208
vt 0.569249 0.390147
vt 0.819249 0.390147
vt 0.819249 0.640147
vt 0.569249 0.640147
vt 0.598276 0.329592
vt 0.848276 0.329592
vt 0.848276 0.579592
vt 0.598276 0.579592
vt 0.608253 0.336273
vt 0.858253 0.336273
vt 0.858253 0.586273
vt 0.608253 0.586273
vn 0.000000 0.000000 1.000000
vn 0.000000 0.000000 1.000000
vn 0.000000 0.000000 1.000000
vn 0.000000 0.000000 1.000000
vn 0.000000 1.000000 0.000000
vn 0.000000 1.000000 0.000000
vn 0.000000 1.000000 0.000000
vn 0.000000 1.000000 0.000000
vn 0.000000 0.000000 -1.000000
vn 0.000000 0.000000 -1.000000
vn 0.000000 0.000000 -1.000000
vn 0.000000 0.000000 -1.000000
vn 0.000000 -1.000000 0.000000
vn 0.000000 -1.000000 0.000000
vn 0.000000 -1.000000 0.000000
vn 0.000000 -1.000000 0.000000
vn 1.000000 0.000000 0.000000
vn 1.000000 0.000000 0.000000
vn 1.000000 0.000000 0.000000
vn 1.000000 0.000000 0.000000
vn -1.000000 0.000000 0.000000
vn -1.000000 0.000000 0.000000
vn -1.000000 0.000000 0.000000
vn -1.000000 0.000000 0.000000
vn 0.000000 0.000000 1.000000
vn 0.000000 0.000000 1.000000
vn 0.000000 0.000000 1.000000
vn 0.000000 0.000000 1.000000
vn 0.000000 1.000000 0.000000
vn 0.000000 1.000000 0.000000
vn 0.000000 1.000000 0.000000
vn 0.000000 1.000000 0.000000
vn 0.000000 0.000000 -1.000000
vn 0.000000 0.000000 -1.000000
vn 0.000000 0.000000 -1.000000
vn 0.000000 0.000000 -1.000000
vn 0.000000 -1.000000 0.000000
vn 0.000000 -1.000000 0.000000
vn 0.000000 -1.000000 0.000000
vn 0.000000 -1.000000 0.000000
vn 1.000000 0.000000 0.000000
vn 1.000000 0.000000 0.000000
vn 1.000000 0.000000 0.000000
vn 1.000000 0.000000 0.000000
vn -1.000000 0.000000 0.000000
vn -1.000000 0.000000 0.000000
vn -1.000000 0.000000 0.000000
vn -1.000000 0.000000 0.000000
vn 0.000000 0.000000 1.000000
vn 0.000000 0.000000 1.000000
vn 0.000000 0.000000 1.000000
vn 0.000000 0.000000 1.000000
vn 0.000000 1.000000 0.000000
vn 0.000000 1.000000 0.000000
vn 0.000000 1.000000 0.000000
vn 0.000000 1.000000 0.000000
vn 0.000000 0.000000 -1.000000
vn 0.000000 0.000000 -1.000000
vn 0.000000 0.000000 -1.000000
vn 0.000000 0.000000 -1.000000
vn 0.000000 -1.000000 0.000000
vn 0.000000 -1.000000 0.000000
vn 0.000000 -1.000000 0.000000
vn 0.000000 -1.000000 0.000000
vn 1.000000 0.000000 0.000000
vn 1.000000 0.000000 0.000000
vn 1.000000 0.000000 0.000000
vn 1.000000 0.000000 0.000000
vn -1.000000 0.000000 0.000000
vn -1.000000 0.000000 0.000000
vn -1.000000 0.000000 0.000000
vn -1.000000 0.000000 0.000000
s off
g pCube35
usemtl initialShadingGroup
f 1/1/1 2/2/2 4/3/3 3/4/4
f 3/5/5 4/6/6 6/7/7 5/8/8
f 5/9/9 6/10/10 8/11/11 7/12/12
f 7/13/13 8/14/14 2/15/15 1/16/16
f 2/17/17 8/18/18 6/19/19 4/20/20
f 7/21/21 1/22/22 3/23/23 5/24/24
f 9/25/25 10/26/26 12/27/27 11/28/28
f 11/29/29 12/30/30 14/31/31 13/32/32
f 13/33/33 14/34/34 16/35/35 15/36/36
f 15/37/37 16/38/38 10/39/39 9/40/40
f 10/41/41 16/42/42 14/43/43 12/44/44
f 15/45/45 9/46/46 11/47/47 13/48/48
f 17/49/49 18/50/50 20/51/51 19/52/52
f 19/53/53 20/54/54 22/55/55 21/56/56
f 21/57/57 22/58/58 24/59/59 23/60/60
f 23/61/61 24/62/62 18/63/63 17/64/64
f 18/65/65 24/66/66 22/67/67 20/68/68
f 23/69/69 17/70/70 19/71/71 21/72/72
